<?xml version="1.0" encoding="UTF-8" standalone="no"?>
<!-- Created with Inkscape (http://www.inkscape.org/) -->

<svg
   width="210mm"
   height="297mm"
   viewBox="0 0 210 297"
   version="1.1"
   id="svg1"
   xmlns="http://www.w3.org/2000/svg"
   xmlns:svg="http://www.w3.org/2000/svg">
  <defs
     id="defs1" />
  <g
     id="layer1">
    <ellipse
       style="fill:#2e4053;stroke-width:0.39764;fill-opacity:1"
       id="path1"
       cx="40.732471"
       cy="35.800735"
       rx="21.370848"
       ry="20.092251" />
    <rect
       style="fill:#2e4053;stroke-width:0.264583;fill-opacity:1"
       id="rect1"
       width="27.033209"
       height="27.763838"
       x="86.579338"
       y="20.092251" />
    <path
       style="fill:#2e4053;stroke-width:0.264583;fill-opacity:1"
       id="path2"
       d="m 125.66789,37.992621 -13.41999,-6.362184 -12.849008,7.448249 1.903788,-14.729191 -11.054263,-9.918501 14.596593,-2.740956 6.0171,-13.5782185 7.1174,13.0351865 14.77304,1.5267 -10.1978,10.797144 z"
       transform="translate(48.221403,15.343173)" />
    <rect
       style="fill:#2e4053;stroke-width:0.264583;fill-opacity:1"
       id="rect2"
       width="59.180809"
       height="27.033209"
       x="8.4022131"
       y="87.309959" />
    <path
       style="fill:none;fill-rule:evenodd;stroke:#000000;stroke-width:0.264583"
       id="path3"
       d="m 88.405899,80.369003 c 1.282137,0.73265 -0.355036,2.089759 -1.217712,2.130997 -2.337799,0.111751 -3.462191,-2.615063 -3.044281,-4.56642 0.747543,-3.49052 4.757517,-4.96918 7.915128,-3.957566 4.633923,1.484583 6.510415,6.92527 4.870851,11.263836 -2.185281,5.782627 -9.10151,8.065618 -14.612545,5.784136 C 75.382266,88.152974 72.689423,79.74231 75.61992,73.062733 79.169145,64.97287 89.083948,61.868429 96.929881,65.452028 106.17604,69.675175 109.69313,81.099766 105.45387,90.110697 100.55947,100.51417 87.621514,104.44461 77.446493,99.547972 65.884988,93.984103 61.540728,79.530358 67.095934,68.191886 73.328035,55.471834 89.299272,50.713397 101.80073,56.928041 c 13.87898,6.899434 19.05186,24.389414 12.17713,38.053503"
       transform="translate(12.785978,21.553505)" />
    <path
       style="fill:#2e4053;stroke-width:0.264583;fill-opacity:1"
       id="path4"
       d="m 142.96418,110.19543 c 6.31318,-3.24554 12.86371,-6.02798 19.49957,-8.54127 3.25591,-1.23315 6.54665,-2.372309 9.81998,-3.55847 10.30312,-3.56999 20.64898,-7.01365 30.99971,-10.44234 0,0 -2.28393,-1.5484 -2.28393,-1.5484 v 0 c -10.30224,3.54098 -20.60955,7.06739 -30.95664,10.47584 -10.23608,3.50183 -20.48807,6.99614 -30.37315,11.41915 z" />
  </g>
</svg>
