<?xml version="1.0" encoding="iso-8859-1"?>
<!-- Uploaded to: SVG Repo, www.svgrepo.com, Generator: SVG Repo Mixer Tools -->
<!DOCTYPE svg PUBLIC "-//W3C//DTD SVG 1.1//EN" "http://www.w3.org/Graphics/SVG/1.1/DTD/svg11.dtd">
<svg fill="#000000" height="800px" width="800px" version="1.1" id="Capa_1" xmlns="http://www.w3.org/2000/svg" xmlns:xlink="http://www.w3.org/1999/xlink" 
	 viewBox="0 0 469.818 469.818" xml:space="preserve">
<g>
	<path d="M416.848,404.905c-19.438,0-29.554,6.069-38.479,11.425c-7.985,4.791-14.293,8.575-28.19,8.575
		c-13.898,0-20.206-3.784-28.191-8.575c-8.926-5.355-19.042-11.425-38.479-11.425c-19.436,0-29.553,6.069-38.478,11.425
		c-7.985,4.791-14.292,8.575-28.189,8.575c-13.896,0-20.203-3.784-28.189-8.575c-3.874-2.324-7.975-4.782-12.962-6.821
		l50.067-25.088c13.838-1.532,22.175-6.514,29.557-10.941c7.987-4.791,14.296-8.574,28.193-8.574c13.897,0,20.205,3.784,28.19,8.575
		c8.926,5.355,19.043,11.425,38.48,11.425s29.554-6.069,38.479-11.425c7.985-4.791,14.293-8.575,28.19-8.575c5.523,0,10-4.478,10-10
		c0-5.522-4.477-10-10-10c-19.438,0-29.554,6.069-38.479,11.425c-7.985,4.791-14.293,8.575-28.19,8.575
		c-13.898,0-20.206-3.784-28.191-8.575c-5.816-3.49-12.156-7.271-21.231-9.491l49.39-24.749c4.939-2.475,6.936-8.482,4.461-13.42
		c-2.475-4.939-8.485-6.936-13.42-4.461l-68.634,34.392c4.052-13.419,3.866-27.489-0.928-40.767
		c-5.515-15.273-16.549-27.632-30.181-34.692c9.266-10.24,17.349-24.501,25.423-41.503c6.602-13.872,12.142-25.923,15.833-36.717
		c11.793,4.301,23.75,6.489,35.465,6.489c5.713,0,11.37-0.519,16.919-1.563c21.811-4.107,40.403-16.126,53.766-34.758
		c3.219-4.488,2.189-10.735-2.298-13.954c-4.49-3.219-10.737-2.188-13.954,2.298c-19.152,26.706-52.059,34.906-85.29,21.855
		c0.184-1.898,0.288-3.766,0.268-5.594c-0.268-24.851-20.429-37.295-35.566-44.492c-12.055-5.738-22.341-8.528-31.444-8.528
		c-16.217,0-27.791,8.69-37.587,22.101c-12.42-6.488-22.758-15.344-29.917-25.953c-10.105-14.977-13.381-32.565-9.472-50.865
		c1.154-5.4-2.289-10.714-7.69-11.868c-5.399-1.152-10.715,2.289-11.868,7.69c-5.072,23.739-0.766,46.642,12.451,66.23
		c8.767,12.991,21.176,23.848,35.975,31.819c-4.183,7.76-8.211,16.237-12.383,25.024c-16.232,34.099-20.374,54.965-14.301,72.025
		c1.386,3.893,3.292,7.495,5.752,10.852c3.13,5.169,10.505,19.007,14.019,39.623c5.909,34.667-1.236,71.495-21.223,109.506
		l-95.827,48.018c-4.938,2.475-6.935,8.482-4.461,13.42c1.754,3.501,5.283,5.522,8.948,5.522c1.506,0,3.034-0.341,4.472-1.062
		l87.015-43.603c1.806-0.164,3.718-0.249,5.707-0.249c13.896,0,20.202,3.784,28.187,8.575c8.926,5.354,19.042,11.425,38.479,11.425
		s29.554-6.069,38.479-11.425c7.985-4.791,14.292-8.575,28.188-8.575c13.897,0,20.205,3.784,28.19,8.575
		c8.926,5.355,19.043,11.425,38.48,11.425s29.554-6.069,38.479-11.425c7.985-4.791,14.293-8.575,28.19-8.575c5.523,0,10-4.478,10-10
		C426.848,409.383,422.37,404.905,416.848,404.905z M178.136,179.439c4.774-10.056,8.935-18.554,12.787-25.606
		c6.149,2.083,12.56,3.728,19.173,4.885c0.583,0.102,1.162,0.151,1.734,0.151c4.768,0,8.989-3.422,9.839-8.279
		c0.951-5.44-2.688-10.622-8.128-11.573c-3.847-0.673-7.595-1.557-11.251-2.598c5.671-6.622,11.347-9.744,18.275-9.744
		c6.064,0,13.538,2.154,22.852,6.589c21.088,10.026,24.074,18.732,24.159,26.648c0.135,12.432-7.694,29.865-18.772,53.143
		c-16.029,33.752-28.497,47.52-43.034,47.52c-5.655,0-12.271-1.832-20.226-5.602c-8.394-3.977-14.177-8.183-17.738-12.939
		c-0.732-1.153-1.251-1.897-1.477-2.212c-0.692-1.182-1.268-2.395-1.715-3.65C160.624,224.963,164.794,207.47,178.136,179.439z
		 M185.038,288.729c-0.862-4.816-1.905-9.31-3.052-13.471c8.66,3.565,16.483,5.314,23.784,5.314c5.96,0,11.418-1.112,16.483-3.209
		c13.653,2.714,25.465,13.153,30.56,27.264c6.025,16.685,1.667,34.767-11.94,49.849l-22.554,11.302
		c-0.021,0.011-0.043,0.021-0.064,0.032l-45.329,22.714C189.688,346.401,189.168,311.795,185.038,288.729z"/>
	<path d="M260.255,113.496c5.65,1.766,11.491,2.66,17.359,2.66c25.507,0,47.763-16.389,55.382-40.781
		c4.616-14.776,3.2-30.48-3.987-44.22c-7.198-13.759-19.317-23.883-34.128-28.509C289.26,0.891,283.443,0,277.594,0
		c-25.554,0-47.839,16.375-55.452,40.748C212.594,71.313,229.692,103.948,260.255,113.496z M241.232,46.711
		C246.223,30.734,260.836,20,277.594,20c3.825,0,7.635,0.584,11.324,1.736c9.706,3.032,17.65,9.669,22.369,18.69
		c4.713,9.01,5.643,19.304,2.619,28.986c-4.997,15.996-19.581,26.744-36.292,26.744c-3.844,0-7.678-0.589-11.396-1.75
		C246.181,88.146,234.973,66.751,241.232,46.711z"/>
</g>
</svg>